<svg xmlns="http://www.w3.org/2000/svg" width="350" height="178" viewBox="0 0 350 178" role="img" aria-labelledby="title desc">
  <title id="title">Most used languages</title>
  <desc id="desc">SCSS 29.2%, Vue 26.4%, CSS 11.6%, PHP 10.8%, TypeScript 8.5%, JavaScript 5.9%, HTML 4.1%, Dart 3.5% (by code size across public repositories)</desc>
  <rect width="350" height="178" rx="6" fill="#141321"/>
  <text x="25" y="36" fill="#fe428e" font-size="18" font-weight="600" font-family="'Segoe UI', Ubuntu, 'Helvetica Neue', Arial, sans-serif">Most Used Languages</text>
  <clipPath id="bar"><rect x="25" y="52" width="300" height="8" rx="4"/></clipPath>
  <g clip-path="url(#bar)"><rect x="25.00" y="52" width="87.50" height="8" fill="#c6538c"/><rect x="112.50" y="52" width="79.25" height="8" fill="#41b883"/><rect x="191.76" y="52" width="34.69" height="8" fill="#663399"/><rect x="226.44" y="52" width="32.53" height="8" fill="#4F5D95"/><rect x="258.97" y="52" width="25.54" height="8" fill="#3178c6"/><rect x="284.51" y="52" width="17.73" height="8" fill="#f1e05a"/><rect x="302.25" y="52" width="12.20" height="8" fill="#e34c26"/><rect x="314.45" y="52" width="10.55" height="8" fill="#00B4AB"/></g><g transform="translate(25, 84)"><circle cx="5" cy="-4" r="5" fill="#c6538c"/><text x="16" y="0" fill="#a9fef7" font-size="12" font-family="'Segoe UI', Ubuntu, 'Helvetica Neue', Arial, sans-serif">SCSS 29.2%</text></g><g transform="translate(175, 84)"><circle cx="5" cy="-4" r="5" fill="#41b883"/><text x="16" y="0" fill="#a9fef7" font-size="12" font-family="'Segoe UI', Ubuntu, 'Helvetica Neue', Arial, sans-serif">Vue 26.4%</text></g><g transform="translate(25, 106)"><circle cx="5" cy="-4" r="5" fill="#663399"/><text x="16" y="0" fill="#a9fef7" font-size="12" font-family="'Segoe UI', Ubuntu, 'Helvetica Neue', Arial, sans-serif">CSS 11.6%</text></g><g transform="translate(175, 106)"><circle cx="5" cy="-4" r="5" fill="#4F5D95"/><text x="16" y="0" fill="#a9fef7" font-size="12" font-family="'Segoe UI', Ubuntu, 'Helvetica Neue', Arial, sans-serif">PHP 10.8%</text></g><g transform="translate(25, 128)"><circle cx="5" cy="-4" r="5" fill="#3178c6"/><text x="16" y="0" fill="#a9fef7" font-size="12" font-family="'Segoe UI', Ubuntu, 'Helvetica Neue', Arial, sans-serif">TypeScript 8.5%</text></g><g transform="translate(175, 128)"><circle cx="5" cy="-4" r="5" fill="#f1e05a"/><text x="16" y="0" fill="#a9fef7" font-size="12" font-family="'Segoe UI', Ubuntu, 'Helvetica Neue', Arial, sans-serif">JavaScript 5.9%</text></g><g transform="translate(25, 150)"><circle cx="5" cy="-4" r="5" fill="#e34c26"/><text x="16" y="0" fill="#a9fef7" font-size="12" font-family="'Segoe UI', Ubuntu, 'Helvetica Neue', Arial, sans-serif">HTML 4.1%</text></g><g transform="translate(175, 150)"><circle cx="5" cy="-4" r="5" fill="#00B4AB"/><text x="16" y="0" fill="#a9fef7" font-size="12" font-family="'Segoe UI', Ubuntu, 'Helvetica Neue', Arial, sans-serif">Dart 3.5%</text></g>
</svg>
